<?xml version="1.0" encoding="UTF-8"?>
<svg width="120px" height="120px" viewBox="0 0 120 120" version="1.1" xmlns="http://www.w3.org/2000/svg" xmlns:xlink="http://www.w3.org/1999/xlink">
    <!-- Generator: Sketch 51.3 (57544) - http://www.bohemiancoding.com/sketch -->
    <title>Icons / Page Icon / Cloud Partners</title>
    <desc>Created with Sketch.</desc>
    <defs></defs>
    <g id="Icons-/-Page-Icon-/-Cloud-Partners" stroke="none" stroke-width="1" fill="none" fill-rule="evenodd">
        <path d="M60,0 C26.863,0 0,26.863 0,60 C0,93.137 26.863,120 60,120 C93.137,120 120,93.137 120,60 C120,26.863 93.137,0 60,0 M60,4 C90.879,4 116,29.122 116,60 C116,90.878 90.879,116 60,116 C29.121,116 4,90.878 4,60 C4,29.122 29.121,4 60,4" id="Page-1" fill="#000000"></path>
        <path d="M82.7058279,41.401939 C82.7058279,31.1788889 74.526939,23 64.3038889,23 C56.9428889,23 50.8081613,27.0894444 47.9461111,33.6325556 C45.9008279,32.8146667 43.8566667,32.4051613 41.403,32.4051613 C31.1788279,31.9967778 22.999939,40.5840501 22.999939,50.8082222 C22.999939,61.0312724 31.1788279,69.2101613 41.403,69.2101613 L56.9428889,69.2101613 L56.9428889,52.0356165 L64.3038889,59.805 L67.5754444,56.5334444 L54.4892222,43.4472222 L41.403,56.5334444 L44.6745556,59.805 L52.443939,52.0356165 L52.443939,64.3028279 L41.403,64.3028279 C33.6324946,64.3028279 27.497767,58.1692222 27.497767,50.3998387 C27.497767,42.6293333 33.6324946,36.4946057 41.403,36.4946057 C43.0387778,36.4946057 44.6745556,36.9041111 46.3103333,37.3124946 L50.3997778,38.9482724 L52.0355556,35.2683333 C54.4892222,30.361 58.9870501,27.4978279 64.3038889,27.4978279 C72.0732724,27.4978279 78.208,33.6325556 78.208,41.401939 L78.208,45.9008889 L82.7058279,45.9008889 C87.6131613,45.9008889 91.7037276,49.9903333 91.7037276,54.8976667 C91.7037276,59.805 87.6131613,63.8944444 82.7058279,63.8944444 L67.165939,63.8944444 L67.165939,87.2037168 L59.804939,80.2522222 L56.5333835,83.5237778 L69.6196057,96.61 L82.7058279,83.5237778 L79.4342724,80.2522222 L72.0732724,87.6132222 L72.0732724,68.8017778 L82.7058279,68.8017778 C90.4763333,68.8017778 96.611061,62.6670501 96.611061,54.8976667 C96.611061,47.1282832 90.4763333,41.401939 82.7058279,41.401939" id="Fill-1" fill="#000000"></path>
    </g>
</svg>