<?xml version="1.0" encoding="UTF-8"?>
<svg width="34px" height="34px" viewBox="0 0 34 34" version="1.1" xmlns="http://www.w3.org/2000/svg" xmlns:xlink="http://www.w3.org/1999/xlink">
    <!-- Generator: Sketch 51.3 (57544) - http://www.bohemiancoding.com/sketch -->
    <title>34 LinkedIn</title>
    <desc>Created with Sketch.</desc>
    <defs>
        <polygon id="path-1" points="0 16.9999 0 0 34 0 34 16.9999 34 33.9998 0 33.9998"></polygon>
    </defs>
    <g id="Symbols" stroke="none" stroke-width="1" fill="none" fill-rule="evenodd">
        <g id="Navigation-/-Footer" transform="translate(-1774.000000, -131.000000)">
            <g id="Logos-/-LinkedIn" transform="translate(1774.000000, 131.000000)">
                <g id="LinkedIn-Icon">
                    <g id="Group-3">
                        <mask id="mask-2" fill="white">
                            <use xlink:href="#path-1"></use>
                        </mask>
                        <g id="Clip-2"></g>
                        <path d="M34,16.9998 C34,26.3888 26.389,33.9998 17,33.9998 C7.611,33.9998 0,26.3888 0,16.9998 C0,7.6108 7.611,-0.0002 17,-0.0002 C26.389,-0.0002 34,7.6108 34,16.9998" id="Fill-1" fill="#747676" mask="url(#mask-2)"></path>
                    </g>
                    <path d="M26.3372,23.9315 L22.6972,23.9315 L22.6972,18.3065 C22.6972,16.8825 22.2142,15.9125 20.9362,15.9125 C19.9592,15.9125 19.4032,16.5675 19.1492,17.1995 C19.0522,17.4265 19.0562,17.7405 19.0562,18.0565 L19.0562,23.9315 L15.5022,23.9315 C15.5022,23.9315 15.5492,14.3055 15.5022,13.2645 L19.0562,13.2645 L19.0562,14.8895 C19.3132,14.1685 20.3742,13.1415 22.2542,13.1415 C24.5792,13.1415 26.3372,14.6515 26.3372,17.8995 L26.3372,23.9315 Z M11.7762,11.9645 L11.7542,11.9645 C10.5692,11.9645 9.7992,11.1455 9.7992,10.1285 C9.7992,9.0925 10.5892,8.2985 11.8002,8.2985 C13.0092,8.2985 13.7552,9.0945 13.7772,10.1315 C13.7772,11.1465 13.0092,11.9645 11.7762,11.9645 Z M9.9492,23.9315 L13.3332,23.9315 L13.3332,13.2645 L9.9492,13.2645 L9.9492,23.9315 Z" id="Fill-4" fill="#FFFFFF"></path>
                </g>
            </g>
        </g>
    </g>
</svg>