<?xml version="1.0" encoding="UTF-8"?>
<svg width="34px" height="34px" viewBox="0 0 34 34" version="1.1" xmlns="http://www.w3.org/2000/svg" xmlns:xlink="http://www.w3.org/1999/xlink">
    <!-- Generator: Sketch 51.3 (57544) - http://www.bohemiancoding.com/sketch -->
    <title>34 YouTube</title>
    <desc>Created with Sketch.</desc>
    <defs>
        <polygon id="path-1" points="0 16.9999 0 0 34 0 34 16.9999 34 33.9998 0 33.9998"></polygon>
    </defs>
    <g id="Symbols" stroke="none" stroke-width="1" fill="none" fill-rule="evenodd">
        <g id="Navigation-/-Footer" transform="translate(-1862.000000, -131.000000)">
            <g id="Logos-/-YouTube" transform="translate(1862.000000, 131.000000)">
                <g id="YouTube-Icon">
                    <g id="Group-3">
                        <mask id="mask-2" fill="white">
                            <use xlink:href="#path-1"></use>
                        </mask>
                        <g id="Clip-2"></g>
                        <path d="M34,16.9998 C34,26.3888 26.389,33.9998 17,33.9998 C7.611,33.9998 0,26.3888 0,16.9998 C0,7.6108 7.611,-0.0002 17,-0.0002 C26.389,-0.0002 34,7.6108 34,16.9998" id="Fill-1" fill="#747575" mask="url(#mask-2)"></path>
                    </g>
                    <path d="M12.3245,14.7786 L13.6325,14.7786 L13.6325,10.2576 L15.1775,6.3866 L13.7475,6.3866 L12.9275,9.2626 L12.0945,6.3796 L10.6785,6.3796 L12.3225,10.2596 L12.3245,14.7786 Z M16.1605,13.1926 C16.1605,13.5286 16.4075,13.8006 16.7105,13.8006 C17.0125,13.8006 17.2605,13.5286 17.2605,13.1926 L17.2605,10.0576 C17.2605,9.7236 17.0125,9.4516 16.7105,9.4516 C16.4075,9.4516 16.1605,9.7236 16.1605,10.0576 L16.1605,13.1926 Z M15.0725,10.8536 C15.0725,10.2876 15.1215,9.8456 15.2155,9.5266 C15.3085,9.2106 15.4795,8.9556 15.7255,8.7616 C15.9685,8.5706 16.2825,8.4716 16.6645,8.4716 C16.9845,8.4716 17.2585,8.5346 17.4875,8.6586 C17.7195,8.7826 17.8975,8.9436 18.0195,9.1426 C18.1475,9.3416 18.2305,9.5476 18.2765,9.7576 C18.3235,9.9676 18.3445,10.2896 18.3445,10.7206 L18.3445,12.2116 C18.3445,12.7586 18.3235,13.1596 18.2815,13.4146 C18.2395,13.6716 18.1505,13.9086 18.0075,14.1306 C17.8695,14.3526 17.6915,14.5166 17.4765,14.6206 C17.2565,14.7276 17.0065,14.7796 16.7225,14.7796 C16.4075,14.7796 16.1425,14.7366 15.9205,14.6446 C15.7005,14.5546 15.5315,14.4166 15.4115,14.2356 C15.2895,14.0536 15.2035,13.8336 15.1515,13.5756 C15.0985,13.3176 15.0725,12.9296 15.0725,12.4126 L15.0725,10.8536 Z M19.2735,14.1806 C19.3365,14.3366 19.4355,14.4636 19.5715,14.5576 C19.7045,14.6536 19.8755,14.6996 20.0795,14.6996 C20.2595,14.6996 20.4185,14.6506 20.5585,14.5516 C20.6945,14.4516 20.8095,14.3036 20.9055,14.1066 L20.8815,14.5926 L22.2675,14.5926 L22.2675,8.7006 L21.1765,8.7006 L21.1765,13.2866 C21.1765,13.5356 20.9725,13.7376 20.7225,13.7376 C20.4745,13.7376 20.2665,13.5356 20.2665,13.2866 L20.2665,8.7006 L19.1305,8.7006 L19.1305,12.6756 C19.1305,13.1826 19.1385,13.5196 19.1525,13.6906 C19.1705,13.8606 19.2085,14.0236 19.2735,14.1806 Z M24.0555,23.7716 L23.1235,23.7746 C23.1235,23.8136 23.1195,23.8556 23.1195,23.9026 L23.1195,24.4236 C23.1195,24.7006 22.8895,24.9276 22.6115,24.9276 L22.4295,24.9276 C22.1485,24.9276 21.9195,24.7006 21.9195,24.4236 L21.9195,24.3636 L21.9195,23.7926 L21.9195,23.0536 L24.0515,23.0536 L24.0515,22.2506 C24.0515,21.6646 24.0395,21.0756 23.9895,20.7406 C23.8375,19.6786 22.3465,19.5096 21.5935,20.0546 C21.3575,20.2236 21.1765,20.4506 21.0715,20.7566 C20.9645,21.0616 20.9125,21.4796 20.9125,22.0076 L20.9125,23.7746 C20.9125,26.7116 24.4795,26.2966 24.0555,23.7716 Z M20.1655,24.1626 L20.1605,21.2016 C20.1605,20.0716 19.3165,19.3966 18.1695,20.3096 L18.1735,18.1066 L16.9315,18.1076 L16.9265,25.7116 L17.9465,25.6956 L18.0405,25.2226 C19.3465,26.4206 20.1675,25.5996 20.1655,24.1626 Z M16.1865,20.0876 L14.9455,20.0876 L14.9455,23.6476 C14.9455,24.1606 14.9745,24.4196 14.9435,24.5096 C14.8405,24.7856 14.3865,25.0796 14.2095,24.5396 C14.1785,24.4456 14.2065,24.1606 14.2065,23.6716 L14.1995,20.0876 L12.9655,20.0876 L12.9685,23.6146 C12.9685,24.1556 12.9565,24.5586 12.9725,24.7426 C13.0015,25.0656 12.9935,25.4426 13.2935,25.6586 C13.8505,26.0606 14.9225,25.5976 15.1915,25.0216 L15.1875,25.7566 L16.1865,25.7576 L16.1865,20.0876 Z M11.7185,25.7606 L11.7165,19.0946 L13.2095,19.0956 L13.2095,18.1076 L9.2325,18.1026 L9.2325,19.0726 L10.4735,19.0766 L10.4735,25.7606 L11.7185,25.7606 Z M25.8675,18.7446 L25.8675,25.0716 C25.8675,26.5916 24.5515,27.8326 22.9425,27.8326 L10.9155,27.8326 C9.3055,27.8326 7.9895,26.5916 7.9895,25.0716 L7.9895,18.7446 C7.9895,17.2276 9.3055,15.9866 10.9155,15.9866 L22.9425,15.9866 C24.5515,15.9866 25.8675,17.2276 25.8675,18.7446 Z M18.6955,20.6066 C18.3965,20.6066 18.1545,20.8066 18.1545,21.0526 L18.1545,24.3796 C18.1545,24.6236 18.3965,24.8246 18.6955,24.8246 C18.9955,24.8246 19.2415,24.6236 19.2415,24.3796 L19.2415,21.0526 C19.2415,20.8066 18.9955,20.6066 18.6955,20.6066 Z M23.1145,22.0706 L21.9355,22.0706 L21.9405,21.3886 C21.9405,21.0826 22.1905,20.8356 22.4945,20.8356 L22.5715,20.8356 C22.8765,20.8356 23.1265,21.0826 23.1265,21.3886 L23.1145,22.0706 Z" id="Fill-4" fill="#FFFFFF"></path>
                </g>
            </g>
        </g>
    </g>
</svg>