<?xml version="1.0" encoding="UTF-8"?>
<svg width="120px" height="120px" viewBox="0 0 120 120" version="1.1" xmlns="http://www.w3.org/2000/svg" xmlns:xlink="http://www.w3.org/1999/xlink">
    <!-- Generator: Sketch 51.3 (57544) - http://www.bohemiancoding.com/sketch -->
    <title>Icons / Page Icon / Hardware</title>
    <desc>Created with Sketch.</desc>
    <defs></defs>
    <g id="Icons-/-Page-Icon-/-Hardware" stroke="none" stroke-width="1" fill="none" fill-rule="evenodd">
        <path d="M60,0 C26.863,0 0,26.863 0,60 C0,93.137 26.863,120 60,120 C93.137,120 120,93.137 120,60 C120,26.863 93.137,0 60,0 M60,4 C90.879,4 116,29.122 116,60 C116,90.878 90.879,116 60,116 C29.121,116 4,90.878 4,60 C4,29.122 29.121,4 60,4" id="Page-1" fill="#000000"></path>
        <path d="M74.556,25 L74.556,35.904 L63.292,35.904 L63.292,25 L58.788,25 L58.788,35.904 L46.4,35.904 L46.4,25 L41.894,25 L41.894,35.904 L35.906,35.904 L35.906,41.894 L25,41.894 L25,46.398 L35.906,46.398 L35.906,57.663 L25,57.663 L25,62.167 L35.906,62.167 L35.906,74.556 L25,74.556 L25,79.061 L35.906,79.061 L35.906,85.05 L41.894,85.05 L41.894,95.955 L46.4,95.955 L46.4,85.05 L58.788,85.05 L58.788,95.955 L63.292,95.955 L63.292,85.05 L74.556,85.05 L74.556,95.955 L79.061,95.955 L79.061,85.05 L85.05,85.05 L85.05,79.061 L95.955,79.061 L95.955,74.556 L85.05,74.556 L85.05,62.167 L95.955,62.167 L95.955,57.663 L85.05,57.663 L85.05,46.398 L95.955,46.398 L95.955,41.894 L85.05,41.894 L85.05,35.904 L79.061,35.904 L79.061,25 L74.556,25 Z M40,80.957 L80.956,80.957 L80.956,39.999 L40,39.999 L40,80.957 Z" id="Fill-5" fill="#000000"></path>
        <path d="M55.093,64.516 L64.514,64.516 L64.514,55.094 L55.093,55.094 L55.093,64.516 Z M51,68.609 L68.608,68.609 L68.608,51 L51,51 L51,68.609 Z" id="Fill-1" fill="#000000"></path>
    </g>
</svg>