<?xml version="1.0" encoding="UTF-8"?>
<svg width="20px" height="20px" viewBox="0 0 20 20" version="1.1" xmlns="http://www.w3.org/2000/svg" xmlns:xlink="http://www.w3.org/1999/xlink">
    <!-- Generator: Sketch 51.3 (57544) - http://www.bohemiancoding.com/sketch -->
    <title>Icons / Search  2 (D8dada)</title>
    <desc>Created with Sketch.</desc>
    <defs></defs>
    <g id="Icons-/-Search--2-(D8dada)" stroke="none" stroke-width="1" fill="none" fill-rule="evenodd">
        <g id="Page-1" fill="#D8DADA">
            <path d="M7.544,13.8292427 C4.077,13.8292427 1.257,11.0093971 1.257,7.54258695 C1.257,4.07677675 4.077,1.25693117 7.544,1.25693117 C11.011,1.25693117 13.83,4.07677675 13.83,7.54258695 C13.83,11.0093971 11.011,13.8292427 7.544,13.8292427 Z M20,19.1099535 L13.3,12.4123203 C14.413,11.0973923 15.087,9.39948526 15.087,7.54258695 C15.087,3.37681508 11.71,0 7.544,0 C3.377,0 0,3.37681508 0,7.54258695 C0,11.7093588 3.377,15.0861738 7.544,15.0861738 C9.399,15.0861738 11.098,14.4122108 12.412,13.3002716 C15.0008379,15.8893542 16.9424662,17.8311661 18.2368852,19.1257073 C18.4311329,19.3199734 18.7225045,19.6113726 19.111,19.9999048 L20,19.1099535 Z" id="Fill-1"></path>
        </g>
    </g>
</svg>