<?xml version="1.0" encoding="UTF-8"?>
<svg width="120px" height="120px" viewBox="0 0 120 120" version="1.1" xmlns="http://www.w3.org/2000/svg" xmlns:xlink="http://www.w3.org/1999/xlink">
    <!-- Generator: Sketch 51.3 (57544) - http://www.bohemiancoding.com/sketch -->
    <title>Icons / Page Icon / System Integrators</title>
    <desc>Created with Sketch.</desc>
    <defs>
        <polygon id="path-1" points="0.31338 0 45 0 45 44.6859 0.31338 44.6859"></polygon>
    </defs>
    <g id="Icons-/-Page-Icon-/-System-Integrators" stroke="none" stroke-width="1" fill="none" fill-rule="evenodd">
        <path d="M60,0 C26.863,0 0,26.863 0,60 C0,93.137 26.863,120 60,120 C93.137,120 120,93.137 120,60 C120,26.863 93.137,0 60,0 M60,4 C90.879,4 116,29.122 116,60 C116,90.878 90.879,116 60,116 C29.121,116 4,90.878 4,60 C4,29.122 29.121,4 60,4" id="Page-1" fill="#000000"></path>
        <path d="M42.6459279,88.5713003 C36.2237819,88.5713003 30.9974402,83.3449586 30.9974402,76.9228126 C30.9974402,70.5006666 36.2237819,65.2743249 42.6459279,65.2743249 C49.0689764,65.2743249 54.2944156,70.5006666 54.2944156,76.9228126 C54.2944156,83.3449586 49.0689764,88.5713003 42.6459279,88.5713003 Z M65.0512395,79.0039633 L65.0512395,75.039308 L58.1327219,75.039308 C57.7870667,72.2045749 56.6878293,69.6017827 55.0281431,67.44392 L59.8907798,62.5812833 L57.0867315,59.777235 L52.2376322,64.6272368 C50.0797695,62.9440858 47.4742698,61.8123586 44.6287068,61.4486536 L44.6287068,54.6167753 L40.663149,54.6167753 L40.663149,61.4486536 C37.819391,61.8159685 35.2120863,62.9413783 33.0551261,64.6272368 L28.2051243,59.777235 L25.4019785,62.5812833 L30.2655177,67.445725 C28.608539,69.6044902 27.5065941,72.2054774 27.1600365,75.039308 L20.2415188,75.039308 L20.2415188,79.0039633 L27.1853063,79.0039633 C27.5652562,81.8107191 28.6843485,84.3810215 30.3530596,86.5109069 L25.4019785,91.4628905 L28.2051243,94.2669388 L33.1697428,89.3023203 C35.3050432,90.9358341 37.8672231,92.0395841 40.663149,92.3960691 L40.663149,99.426496 L44.6287068,99.426496 L44.6287068,92.3960691 C47.4246327,92.0377791 49.9913251,90.9439566 52.123918,89.3032228 L57.0867315,94.2669388 L59.8907798,91.4628905 L54.9396987,86.5109069 C56.6011898,84.3792165 57.7284046,81.8107191 58.1047446,79.0039633 L65.0512395,79.0039633 Z" id="Fill-1" fill="#000000"></path>
        <g id="Group-5" transform="translate(54.000000, 21.000000)">
            <mask id="mask-2" fill="white">
                <use xlink:href="#path-1"></use>
            </mask>
            <g id="Clip-4"></g>
            <path d="M22.65678,33.8607 C16.25238,33.8607 11.04048,28.6488 11.04048,22.2444 C11.04048,15.84 16.25238,10.6281 22.65678,10.6281 C29.06118,10.6281 34.27308,15.84 34.27308,22.2444 C34.27308,28.6488 29.06118,33.8607 22.65678,33.8607 Z M45.00018,24.3198 L45.00018,20.3661 L38.10078,20.3661 C37.75608,17.5392 36.65988,14.9436 35.00478,12.7917 L39.85398,7.9425 L37.05768,5.1462 L32.22108,9.9828 C30.07008,8.3043 27.47178,7.1757 24.63408,6.813 L24.63408,0 L20.67948,0 L20.67948,6.813 C17.84358,7.1793 15.24348,8.3016 13.09248,9.9828 L8.25588,5.1462 L5.46048,7.9425 L10.31058,12.7935 C8.65728,14.9463 7.55928,17.541 7.21368,20.3661 L0.31338,20.3661 L0.31338,24.3198 L7.23888,24.3198 C7.61688,27.1188 8.73378,29.682 10.39788,31.806 L5.46048,36.7443 L8.25588,39.5406 L13.20678,34.5897 C15.33618,36.2187 17.89128,37.3194 20.67948,37.6749 L20.67948,44.6859 L24.63408,44.6859 L24.63408,37.6749 C27.42228,37.3176 29.98188,36.2268 32.10768,34.5915 L37.05768,39.5406 L39.85398,36.7443 L34.91568,31.8069 C36.57348,29.6802 37.69758,27.1188 38.07288,24.3198 L45.00018,24.3198 Z" id="Fill-3" fill="#000000" mask="url(#mask-2)"></path>
        </g>
        <polygon id="Fill-6" fill="#000000" points="52.6004347 27.5419607 28.0832876 27.5419607 28.0832876 42.4376212 21.1440126 42.4132539 30.0651641 54.3090249 38.9881205 42.4132539 32.0488455 42.3735442 32.0488455 31.5075186 52.6004347 31.5075186"></polygon>
        <polygon id="Fill-8" fill="#000000" points="66.2687037 93.1162592 90.7858508 93.1162592 90.7858508 78.2205987 97.7251258 78.244966 88.8030718 66.349195 79.8810179 78.244966 86.8202929 78.2846758 86.8202929 89.1507014 66.2687037 89.1507014"></polygon>
        <circle id="Oval-3" fill="#000000" cx="76.5" cy="43.5" r="5.5"></circle>
        <circle id="Oval-3-Copy" fill="#000000" cx="42.5" cy="77.5" r="5.5"></circle>
    </g>
</svg>