<?xml version="1.0" encoding="UTF-8"?>
<svg width="34px" height="34px" viewBox="0 0 34 34" version="1.1" xmlns="http://www.w3.org/2000/svg" xmlns:xlink="http://www.w3.org/1999/xlink">
    <!-- Generator: Sketch 51.3 (57544) - http://www.bohemiancoding.com/sketch -->
    <title>34 Twitter</title>
    <desc>Created with Sketch.</desc>
    <defs>
        <polygon id="path-1" points="0 16.9999 0 0 34 0 34 16.9999 34 33.9998 0 33.9998"></polygon>
    </defs>
    <g id="Symbols" stroke="none" stroke-width="1" fill="none" fill-rule="evenodd">
        <g id="Navigation-/-Footer" transform="translate(-1818.000000, -131.000000)">
            <g id="Logos-/-Twitter" transform="translate(1818.000000, 131.000000)">
                <g id="Twitter-Icon">
                    <g id="Group-3">
                        <mask id="mask-2" fill="white">
                            <use xlink:href="#path-1"></use>
                        </mask>
                        <g id="Clip-2"></g>
                        <path d="M34,16.9998 C34,26.3888 26.389,33.9998 17,33.9998 C7.611,33.9998 0,26.3888 0,16.9998 C0,7.6108 7.611,-0.0002 17,-0.0002 C26.389,-0.0002 34,7.6108 34,16.9998" id="Fill-1" fill="#747676" mask="url(#mask-2)"></path>
                    </g>
                    <path d="M26.3506,17.1243 C24.4966,24.6273 12.0726,27.8103 6.3536,20.0203 C8.5426,22.1113 12.3586,22.2923 14.7766,19.7963 C13.3576,20.0043 12.3266,18.6123 14.0666,17.8603 C12.5016,18.0323 11.6296,17.2003 11.2726,16.4923 C11.6396,16.1063 12.0446,15.9293 12.8296,15.8773 C11.1146,15.4723 10.4806,14.6343 10.2866,13.6163 C10.7616,13.5023 11.3586,13.4043 11.6836,13.4483 C10.1816,12.6633 9.6586,11.4813 9.7406,10.5933 C12.4256,11.5903 14.1366,12.3913 15.5676,13.1573 C16.0776,13.4283 16.6446,13.9193 17.2846,14.5403 C18.1006,12.3813 19.1126,10.1563 20.8386,9.0533 C20.8106,9.3043 20.6756,9.5373 20.4996,9.7273 C20.9906,9.2823 21.6256,8.9773 22.2736,8.8873 C22.1996,9.3743 21.4996,9.6473 21.0786,9.8053 C21.3956,9.7073 23.0976,8.9473 23.2816,9.3793 C23.5006,9.8713 22.1096,10.0983 21.8726,10.1823 C21.6966,10.2423 21.5196,10.3063 21.3456,10.3773 C23.5006,10.1623 25.5586,11.9403 26.1586,14.1473 C26.2006,14.3043 26.2426,14.4803 26.2826,14.6663 C27.0726,14.9593 28.4976,14.6523 28.9586,14.3683 C28.6256,15.1573 27.7636,15.7353 26.4866,15.8413 C27.1006,16.0973 28.2576,16.2363 29.0586,16.1003 C28.5516,16.6433 27.7376,17.1363 26.3506,17.1243" id="Fill-4" fill="#FFFFFF"></path>
                </g>
            </g>
        </g>
    </g>
</svg>